.
 
http://www.scenetime.com    -   SceneTime [ We been having it ] !!!


How come you press harder on a remote control when you know the battery is dead? so you better seed to get speed ;)

        Seed back for speed


...................................NFO:.................................................
   General
      Complete name :Rise Of The Apes 2011 TS XViD AC3-SCR0N
      Format : AVI
      Format/Info : Audio Video Interleave
      Format profile : OpenDML
      Format settings : rec
      File size : 1.41 GiB
      Duration : 1h 37mn
      Overall bit rate : 2 056 Kbps
      Writing application : AVI-Mux GUI 1.17.8.3, Feb 16 201019:42:50
   Video #0
      ID : 0
      Format : MPEG-4 Visual
      Format profile : Advanced Simple@L5
      Format settings, BVOP : 2
      Format settings, QPel : No
      Format settings, GMC : No warppoints
      Format settings, Matrix : Default (MPEG)
      Codec ID : XVID
      Codec ID/Hint : XviD
      Duration : 1h 37mn
      Bit rate : 1 859 Kbps
      Width : 720 pixels
      Height : 320 pixels
      Display aspect ratio : 2.25:1
      Frame rate : 25.000 fps
      Color space : YUV
      Chroma subsampling : 4:2:0
      Bit depth : 8 bits
      Scan type : Progressive
      Compression mode : Lossy
      Bits/(Pixel*Frame) : 0.323
      Stream size : 1.27 GiB (90%)
      Writing library : XviD 1.2.1 (UTC 2008-12-04)
   Audio #1
      ID : 1
      Format : AC-3
      Format/Info : Audio Coding 3
      Mode extension : CM (complete main)
      Codec ID : 2000
      Duration : 1h 37mn
      Bit rate mode : Constant
      Bit rate : 192 Kbps
      Channel(s) : 2 channels
      Channel positions : Front: L R
      Sampling rate : 44.1 KHz
      Bit depth : 16 bits
      Compression mode : Lossy
      Delay relative to video : 104ms
      Stream size : 135 MiB (9%)
      Alignment : Split accross interleaves
      Interleave, duration : 70 ms (1.74 video frames)
      Interleave, preload duration : 208 ms
      
Thanks to all p2p groups.....